<svg xmlns="http://www.w3.org/2000/svg" viewBox="0 0 64 64" role="img">
  <defs>
    <linearGradient id="rg-grad" x1="0%" y1="0%" x2="100%" y2="100%">
      <stop offset="0%" stop-color="#ff8a00" />
      <stop offset="55%" stop-color="#ffb347" />
      <stop offset="100%" stop-color="#ffd166" />
    </linearGradient>
    <radialGradient id="rg-highlight" cx="35%" cy="25%" r="65%">
      <stop offset="0%" stop-color="rgba(255,255,255,0.65)" />
      <stop offset="45%" stop-color="rgba(255,255,255,0)" />
    </radialGradient>
    <filter id="rg-shadow" x="-20%" y="-20%" width="140%" height="160%">
      <feDropShadow dx="0" dy="2" stdDeviation="3" flood-opacity="0.2" />
    </filter>
  </defs>

  <rect x="6" y="6" width="52" height="52" rx="14" fill="url(#rg-grad)" filter="url(#rg-shadow)" />
  <rect x="6" y="6" width="52" height="52" rx="14" fill="url(#rg-highlight)" opacity="0.35" />

  <path
    d="M18 37c0 5.5 6.5 10 14.5 10s14.5-4.5 14.5-10H18zm-3.5-2c-1.5 0-2.5 1-2.5 2.5S13 40 14.5 40H18v-5h-3.5z"
    fill="#fff8e1"
    opacity="0.9"
  />
  <path
    d="M22 36c1.2-3.6 6-9 10-9s8.8 5.4 10 9c-3.5 2-7.5 3-10 3s-6.5-1-10-3z"
    fill="#fff"
    opacity="0.85"
  />
  <path
    d="M43 29c2-2 5-2 6.5 0 1 1.4 0.5 3-0.4 4.2-1.7 2.4-5.1 3.8-6.1 1.8-.7-1.3 1-3.6 0-6z"
    fill="#fff8e1"
  />
  <path
    d="M31 20c0-2.2 1.8-4 4-4s4 1.8 4 4-4 6-4 6-4-3.8-4-6zm-8 2c0-1.1.9-2 2-2s2 .9 2 2-2.1 3-2.1 3S23 23.1 23 22zm-5 10c0-1.1.9-2 2-2s2 .9 2 2-2.1 3-2.1 3S18 33.1 18 32z"
    fill="#fffdf5"
    opacity="0.8"
  />
</svg>

